<svg width="363" height="48" viewBox="0 0 363 48" fill="none" xmlns="http://www.w3.org/2000/svg">
<path d="M61.0455 9.90909V39H54.4545L43.9432 23.7159H43.7727V39H35.875V9.90909H42.5795L52.9205 25.1364H53.1477V9.90909H61.0455ZM64.8949 39V17.1818H72.7358V39H64.8949ZM68.8153 14.9091C67.7547 14.9091 66.8456 14.5587 66.0881 13.858C65.3305 13.1572 64.9517 12.3144 64.9517 11.3295C64.9517 10.3447 65.3305 9.50189 66.0881 8.80114C66.8456 8.10038 67.7547 7.75 68.8153 7.75C69.8854 7.75 70.7945 8.10038 71.5426 8.80114C72.3002 9.50189 72.679 10.3447 72.679 11.3295C72.679 12.3144 72.3002 13.1572 71.5426 13.858C70.7945 14.5587 69.8854 14.9091 68.8153 14.9091ZM87.2422 39.3977C84.8748 39.3977 82.8482 38.929 81.1626 37.9915C79.477 37.0445 78.1844 35.7282 77.2848 34.0426C76.3852 32.3475 75.9354 30.3826 75.9354 28.1477C75.9354 25.9129 76.3852 23.9527 77.2848 22.267C78.1844 20.572 79.477 19.2557 81.1626 18.3182C82.8482 17.3712 84.8748 16.8977 87.2422 16.8977C89.3823 16.8977 91.2337 17.286 92.7962 18.0625C94.3681 18.8295 95.585 19.9186 96.4467 21.3295C97.3085 22.7311 97.7441 24.3788 97.7536 26.2727H90.4808C90.3767 25.1269 90.0452 24.2557 89.4865 23.6591C88.9373 23.053 88.227 22.75 87.3558 22.75C86.674 22.75 86.0774 22.9489 85.5661 23.3466C85.0547 23.7348 84.657 24.3267 84.3729 25.1222C84.0888 25.9081 83.9467 26.8977 83.9467 28.0909C83.9467 29.2841 84.0888 30.2784 84.3729 31.0739C84.657 31.8598 85.0547 32.4517 85.5661 32.8494C86.0774 33.2377 86.674 33.4318 87.3558 33.4318C87.9335 33.4318 88.4448 33.2992 88.8899 33.0341C89.335 32.7595 89.6948 32.3617 89.9695 31.8409C90.2536 31.3106 90.424 30.6667 90.4808 29.9091H97.7536C97.7251 31.8314 97.2848 33.5076 96.4325 34.9375C95.5803 36.358 94.3729 37.4564 92.8104 38.233C91.2573 39.0095 89.4013 39.3977 87.2422 39.3977ZM111.443 39.3977C109.114 39.3977 107.106 38.9527 105.42 38.0625C103.744 37.1629 102.452 35.875 101.543 34.1989C100.643 32.5133 100.193 30.4962 100.193 28.1477C100.193 25.8939 100.648 23.9242 101.557 22.2386C102.466 20.553 103.749 19.2415 105.406 18.304C107.063 17.3665 109.019 16.8977 111.273 16.8977C112.92 16.8977 114.412 17.1534 115.747 17.6648C117.082 18.1761 118.223 18.9195 119.17 19.8949C120.117 20.8608 120.847 22.035 121.358 23.4176C121.869 24.8002 122.125 26.358 122.125 28.0909V29.9091H102.636V25.5909H114.909C114.9 24.9659 114.739 24.4167 114.426 23.9432C114.123 23.4602 113.711 23.0862 113.19 22.821C112.679 22.5464 112.097 22.4091 111.443 22.4091C110.809 22.4091 110.226 22.5464 109.696 22.821C109.166 23.0862 108.74 23.4555 108.418 23.929C108.105 24.4025 107.939 24.9564 107.92 25.5909V30.25C107.92 30.9508 108.067 31.5758 108.361 32.125C108.654 32.6742 109.076 33.1051 109.625 33.4176C110.174 33.7301 110.837 33.8864 111.614 33.8864C112.153 33.8864 112.646 33.8106 113.091 33.6591C113.545 33.5076 113.934 33.2898 114.256 33.0057C114.578 32.7121 114.814 32.3617 114.966 31.9545H122.125C121.879 33.4697 121.296 34.786 120.378 35.9034C119.459 37.0114 118.242 37.8731 116.727 38.4886C115.222 39.0947 113.46 39.3977 111.443 39.3977ZM122.384 16.2727V9.90909H147.668V16.2727H138.918V39H131.134V16.2727H122.384ZM158.595 26.7273V39H150.754V9.90909H158.311V21.3295H158.538C159.031 19.9375 159.85 18.8532 160.996 18.0767C162.142 17.2907 163.519 16.8977 165.129 16.8977C166.673 16.8977 168.013 17.2481 169.149 17.9489C170.295 18.6496 171.18 19.6155 171.805 20.8466C172.44 22.0777 172.752 23.4886 172.743 25.0795V39H164.902V26.7273C164.911 25.6477 164.642 24.8002 164.092 24.1847C163.553 23.5691 162.781 23.2614 161.777 23.2614C161.143 23.2614 160.584 23.4034 160.101 23.6875C159.627 23.9621 159.258 24.3598 158.993 24.8807C158.737 25.392 158.605 26.0076 158.595 26.7273ZM176.614 39V17.1818H184.455V39H176.614ZM180.534 14.9091C179.473 14.9091 178.564 14.5587 177.807 13.858C177.049 13.1572 176.67 12.3144 176.67 11.3295C176.67 10.3447 177.049 9.50189 177.807 8.80114C178.564 8.10038 179.473 7.75 180.534 7.75C181.604 7.75 182.513 8.10038 183.261 8.80114C184.019 9.50189 184.398 10.3447 184.398 11.3295C184.398 12.3144 184.019 13.1572 183.261 13.858C182.513 14.5587 181.604 14.9091 180.534 14.9091ZM196.29 26.7273V39H188.45V17.1818H195.893V21.3295H196.12C196.594 19.947 197.427 18.8627 198.62 18.0767C199.823 17.2907 201.224 16.8977 202.825 16.8977C204.368 16.8977 205.708 17.2528 206.844 17.9631C207.99 18.6638 208.876 19.6297 209.501 20.8608C210.135 22.0919 210.448 23.4981 210.438 25.0795V39H202.597V26.7273C202.607 25.6477 202.332 24.8002 201.773 24.1847C201.224 23.5691 200.457 23.2614 199.472 23.2614C198.828 23.2614 198.265 23.4034 197.782 23.6875C197.308 23.9621 196.944 24.3598 196.688 24.8807C196.433 25.392 196.3 26.0076 196.29 26.7273ZM224.82 47.6364C222.633 47.6364 220.758 47.3239 219.195 46.6989C217.642 46.0833 216.435 45.2311 215.573 44.142C214.721 43.0625 214.243 41.822 214.138 40.4205H221.695C221.771 40.8845 221.96 41.2585 222.263 41.5426C222.567 41.8267 222.955 42.0303 223.428 42.1534C223.911 42.286 224.451 42.3523 225.048 42.3523C226.061 42.3523 226.899 42.1061 227.562 41.6136C228.234 41.1212 228.57 40.2311 228.57 38.9432V35.25H228.343C228.059 35.9886 227.623 36.6184 227.036 37.1392C226.449 37.6506 225.744 38.0436 224.92 38.3182C224.096 38.5833 223.192 38.7159 222.207 38.7159C220.654 38.7159 219.224 38.3561 217.917 37.6364C216.62 36.9167 215.578 35.7756 214.792 34.2131C214.015 32.6506 213.627 30.6098 213.627 28.0909C213.627 25.4583 214.034 23.3182 214.849 21.6705C215.673 20.0227 216.733 18.8153 218.031 18.0483C219.337 17.2812 220.71 16.8977 222.15 16.8977C223.229 16.8977 224.176 17.0871 224.991 17.4659C225.805 17.8352 226.487 18.3324 227.036 18.9574C227.585 19.5729 228.002 20.25 228.286 20.9886H228.457V17.1818H236.298V38.9432C236.298 40.7898 235.819 42.357 234.863 43.6449C233.916 44.9422 232.581 45.9318 230.857 46.6136C229.134 47.2955 227.121 47.6364 224.82 47.6364ZM225.104 33.1477C225.824 33.1477 226.44 32.9489 226.951 32.5511C227.472 32.1439 227.87 31.5663 228.144 30.8182C228.428 30.0606 228.57 29.1515 228.57 28.0909C228.57 27.0114 228.428 26.0881 228.144 25.321C227.87 24.5445 227.472 23.9527 226.951 23.5455C226.44 23.1288 225.824 22.9205 225.104 22.9205C224.385 22.9205 223.769 23.1288 223.258 23.5455C222.756 23.9527 222.368 24.5445 222.093 25.321C221.828 26.0881 221.695 27.0114 221.695 28.0909C221.695 29.1705 221.828 30.089 222.093 30.8466C222.368 31.5947 222.756 32.1676 223.258 32.5653C223.769 32.9536 224.385 33.1477 225.104 33.1477ZM260.229 24.2841H253.013C252.975 23.839 252.819 23.4555 252.544 23.1335C252.269 22.8116 251.914 22.5653 251.479 22.3949C251.053 22.215 250.579 22.125 250.058 22.125C249.386 22.125 248.808 22.2481 248.325 22.4943C247.842 22.7405 247.606 23.0909 247.615 23.5455C247.606 23.8674 247.743 24.1657 248.027 24.4403C248.321 24.715 248.884 24.928 249.717 25.0795L254.149 25.875C256.384 26.2822 258.046 26.9687 259.135 27.9347C260.233 28.8911 260.787 30.1742 260.797 31.7841C260.787 33.3371 260.323 34.6866 259.405 35.8324C258.496 36.9687 257.25 37.8494 255.669 38.4744C254.097 39.09 252.303 39.3977 250.286 39.3977C246.952 39.3977 244.343 38.7159 242.459 37.3523C240.584 35.9886 239.537 34.1894 239.32 31.9545H247.104C247.208 32.6458 247.549 33.1809 248.126 33.5597C248.714 33.929 249.452 34.1136 250.342 34.1136C251.062 34.1136 251.654 33.9905 252.118 33.7443C252.591 33.4981 252.833 33.1477 252.842 32.6932C252.833 32.2765 252.625 31.9451 252.217 31.6989C251.82 31.4527 251.195 31.2538 250.342 31.1023L246.479 30.4205C244.253 30.0322 242.587 29.2936 241.479 28.2045C240.371 27.1155 239.821 25.714 239.831 24C239.821 22.4848 240.219 21.2017 241.024 20.1506C241.839 19.09 242.999 18.285 244.504 17.7358C246.019 17.1771 247.814 16.8977 249.888 16.8977C253.041 16.8977 255.527 17.5511 257.345 18.858C259.173 20.1648 260.134 21.9735 260.229 24.2841ZM259.923 16.2727V9.90909H285.207V16.2727H276.457V39H268.673V16.2727H259.923ZM295.641 39.3977C293.273 39.3977 291.247 38.929 289.561 37.9915C287.875 37.0445 286.583 35.7282 285.683 34.0426C284.784 32.3475 284.334 30.3826 284.334 28.1477C284.334 25.9129 284.784 23.9527 285.683 22.267C286.583 20.572 287.875 19.2557 289.561 18.3182C291.247 17.3712 293.273 16.8977 295.641 16.8977C298.008 16.8977 300.035 17.3712 301.72 18.3182C303.406 19.2557 304.698 20.572 305.598 22.267C306.498 23.9527 306.947 25.9129 306.947 28.1477C306.947 30.3826 306.498 32.3475 305.598 34.0426C304.698 35.7282 303.406 37.0445 301.72 37.9915C300.035 38.929 298.008 39.3977 295.641 39.3977ZM295.697 33.6023C296.36 33.6023 296.933 33.3797 297.416 32.9347C297.899 32.4896 298.273 31.8551 298.538 31.0312C298.804 30.2074 298.936 29.2273 298.936 28.0909C298.936 26.9451 298.804 25.965 298.538 25.1506C298.273 24.3267 297.899 23.6922 297.416 23.2472C296.933 22.8021 296.36 22.5795 295.697 22.5795C294.997 22.5795 294.395 22.8021 293.893 23.2472C293.392 23.6922 293.008 24.3267 292.743 25.1506C292.478 25.965 292.345 26.9451 292.345 28.0909C292.345 29.2273 292.478 30.2074 292.743 31.0312C293.008 31.8551 293.392 32.4896 293.893 32.9347C294.395 33.3797 294.997 33.6023 295.697 33.6023ZM321.209 39H310.016V9.90909H321.095C324.088 9.90909 326.673 10.4915 328.851 11.6562C331.038 12.8116 332.724 14.4782 333.908 16.6562C335.101 18.8248 335.697 21.4242 335.697 24.4545C335.697 27.4848 335.106 30.089 333.922 32.267C332.738 34.4356 331.062 36.1023 328.893 37.267C326.725 38.4223 324.163 39 321.209 39ZM317.913 32.2955H320.925C322.364 32.2955 323.59 32.0634 324.604 31.5994C325.626 31.1354 326.403 30.3352 326.933 29.1989C327.473 28.0625 327.743 26.4811 327.743 24.4545C327.743 22.428 327.468 20.8466 326.919 19.7102C326.379 18.5739 325.584 17.7737 324.533 17.3097C323.491 16.8456 322.213 16.6136 320.697 16.6136H317.913V32.2955ZM349.977 39.3977C347.609 39.3977 345.583 38.929 343.897 37.9915C342.211 37.0445 340.919 35.7282 340.019 34.0426C339.12 32.3475 338.67 30.3826 338.67 28.1477C338.67 25.9129 339.12 23.9527 340.019 22.267C340.919 20.572 342.211 19.2557 343.897 18.3182C345.583 17.3712 347.609 16.8977 349.977 16.8977C352.344 16.8977 354.371 17.3712 356.056 18.3182C357.742 19.2557 359.034 20.572 359.934 22.267C360.834 23.9527 361.283 25.9129 361.283 28.1477C361.283 30.3826 360.834 32.3475 359.934 34.0426C359.034 35.7282 357.742 37.0445 356.056 37.9915C354.371 38.929 352.344 39.3977 349.977 39.3977ZM350.033 33.6023C350.696 33.6023 351.269 33.3797 351.752 32.9347C352.235 32.4896 352.609 31.8551 352.874 31.0312C353.139 30.2074 353.272 29.2273 353.272 28.0909C353.272 26.9451 353.139 25.965 352.874 25.1506C352.609 24.3267 352.235 23.6922 351.752 23.2472C351.269 22.8021 350.696 22.5795 350.033 22.5795C349.333 22.5795 348.731 22.8021 348.229 23.2472C347.728 23.6922 347.344 24.3267 347.079 25.1506C346.814 25.965 346.681 26.9451 346.681 28.0909C346.681 29.2273 346.814 30.2074 347.079 31.0312C347.344 31.8551 347.728 32.4896 348.229 32.9347C348.731 33.3797 349.333 33.6023 350.033 33.6023Z" fill="#4EA8DE"/>
<g clip-path="url(#clip0_1603_96)">
<path d="M11.0215 8.93302C14.1472 12.9011 15.8158 17.7944 15.7553 22.8155V24.0141L16.7865 24.6416C18.119 25.4482 19.1127 26.6993 19.5866 28.1669C19.1705 27.8605 18.7352 27.5803 18.2833 27.3278L15.5333 25.7838L15.0391 28.9001C14.9963 29.1755 14.9389 29.4485 14.8672 29.718H7.16151C7.04692 29.3655 6.95382 29.0129 6.86789 28.6463L6.24484 25.8261L3.70968 27.2362C3.28615 27.473 2.87723 27.7344 2.48507 28.0188C2.96824 26.5682 3.94123 25.3242 5.24224 24.4935L6.22336 23.866V22.7521C6.24106 17.7513 7.92967 12.8952 11.0287 8.93302H11.0215ZM11.0287 6C10.868 6.00039 10.7128 6.05799 10.5918 6.16216L10.5274 6.21857C6.39778 10.7656 4.10466 16.6454 4.08208 22.745C2.32967 23.8643 1.03251 25.5543 0.417263 27.5197C-0.197979 29.485 -0.0921719 31.6007 0.716194 33.4971C1.56776 31.6455 2.99131 30.1058 4.7839 29.0975C4.96368 29.8642 5.2031 30.6161 5.50005 31.3467C5.53771 31.4871 5.62118 31.6114 5.73763 31.7006C5.85408 31.7898 5.99706 31.8388 6.14458 31.8402H16.0847C16.2852 31.8402 16.4857 31.6498 16.586 31.3537C16.8758 30.6592 17.0778 29.9322 17.1875 29.1892C18.9836 30.1932 20.4083 31.7342 21.2553 33.5887C22.1124 31.7017 22.2451 29.5727 21.6287 27.5967C21.0124 25.6206 19.6888 23.9319 17.9037 22.8437C17.9745 16.7082 15.6935 10.7718 11.5157 6.21857C11.4535 6.15008 11.3773 6.09524 11.2922 6.05759C11.2071 6.01993 11.1149 6.00031 11.0215 6H11.0287Z" fill="#4EA8DE"/>
<path d="M11.0216 22.1598C10.4715 22.1598 9.93376 21.9995 9.47611 21.699C9.01846 21.3986 8.6614 20.9715 8.44993 20.4716C8.23847 19.9716 8.18206 19.4213 8.28782 18.8898C8.39358 18.3584 8.65678 17.8697 9.04423 17.4853C9.43169 17.1009 9.92606 16.838 10.465 16.7298C11.004 16.6216 11.5634 16.6729 12.0728 16.8773C12.5822 17.0816 13.0188 17.4298 13.3275 17.8781C13.6361 18.3263 13.8031 18.8545 13.8074 19.396C13.8159 19.7469 13.7542 20.0961 13.6256 20.4235C13.4971 20.751 13.3043 21.0503 13.0582 21.3043C12.8121 21.5583 12.5176 21.7622 12.1915 21.9041C11.8654 22.0461 11.5141 22.1234 11.1576 22.1316C11.1126 22.1387 11.0666 22.1387 11.0216 22.1316V22.1598Z" fill="#4EA8DE"/>
<path d="M14.8959 33.5958C14.7167 33.5901 14.5382 33.6198 14.3708 33.683C14.2034 33.7462 14.0505 33.8416 13.9211 33.9638C13.7917 34.086 13.6884 34.2323 13.6172 34.3943C13.546 34.5563 13.5084 34.7307 13.5066 34.9072V39.067C13.5066 39.4297 13.653 39.7776 13.9135 40.0342C14.1741 40.2907 14.5274 40.4348 14.8959 40.4348C15.2644 40.4348 15.6178 40.2907 15.8783 40.0342C16.1389 39.7776 16.2852 39.4297 16.2852 39.067V34.9636C16.291 34.7877 16.2611 34.6126 16.1973 34.4482C16.1336 34.2839 16.0372 34.1337 15.9139 34.0064C15.7906 33.879 15.6428 33.7772 15.4791 33.7067C15.3154 33.6362 15.139 33.5985 14.9604 33.5958H14.8959Z" fill="#5E60CE"/>
<path d="M7.16154 33.5958C6.97931 33.5863 6.797 33.613 6.62546 33.6743C6.45392 33.7356 6.29665 33.8302 6.16302 33.9526C6.02939 34.0749 5.92213 34.2225 5.84761 34.3865C5.77309 34.5505 5.73284 34.7275 5.72925 34.9072V39.067C5.72925 39.4297 5.87562 39.7777 6.13617 40.0342C6.39672 40.2907 6.7501 40.4348 7.11857 40.4348C7.48704 40.4348 7.84042 40.2907 8.10097 40.0342C8.36152 39.7777 8.50789 39.4297 8.50789 39.067V34.9636C8.51362 34.7877 8.48373 34.6126 8.41998 34.4482C8.35623 34.2839 8.25989 34.1337 8.13658 34.0064C8.01326 33.879 7.86544 33.7772 7.70173 33.7067C7.53802 33.6362 7.36169 33.5985 7.18302 33.5958H7.16154Z" fill="#5E60CE"/>
<path d="M10.9213 33.5958C10.7426 33.592 10.5649 33.623 10.3984 33.6869C10.2318 33.7507 10.0797 33.8463 9.95068 33.9681C9.82167 34.0899 9.71828 34.2355 9.64644 34.3966C9.5746 34.5577 9.5357 34.7312 9.53198 34.9072V40.6392C9.53198 41.002 9.67836 41.3499 9.93891 41.6064C10.1995 41.8629 10.5528 42.007 10.9213 42.007C11.2898 42.007 11.6432 41.8629 11.9037 41.6064C12.1643 41.3499 12.3106 41.002 12.3106 40.6392V34.9988C12.3164 34.823 12.2865 34.6478 12.2227 34.4835C12.159 34.3191 12.0626 34.1689 11.9393 34.0416C11.816 33.9143 11.6682 33.8124 11.5045 33.7419C11.3408 33.6714 11.1644 33.6337 10.9858 33.631L10.9213 33.5958Z" fill="#5E60CE"/>
</g>
<defs>
<clipPath id="clip0_1603_96">
<rect width="22" height="36" fill="white" transform="translate(0 6)"/>
</clipPath>
</defs>
</svg>
